<svg width="56" height="56" viewBox="0 0 56 56" fill="none" xmlns="http://www.w3.org/2000/svg">
<path fill-rule="evenodd" clip-rule="evenodd" d="M28 50.5C40.4264 50.5 50.5 40.4264 50.5 28C50.5 15.5736 40.4264 5.5 28 5.5C15.5736 5.5 5.5 15.5736 5.5 28C5.5 40.4264 15.5736 50.5 28 50.5ZM55.5 28C55.5 43.1878 43.1878 55.5 28 55.5C12.8122 55.5 0.500004 43.1878 0.500004 28C0.500004 12.8122 12.8122 0.500004 28 0.500004C43.1878 0.500004 55.5 12.8122 55.5 28Z" fill="white"/>
<path d="M26.2322 36.2322C25.2559 37.2085 25.2559 38.7915 26.2322 39.7678C27.2085 40.7441 28.7915 40.7441 29.7678 39.7678L39.7678 29.7678C40.7441 28.7915 40.7441 27.2085 39.7678 26.2322L29.7678 16.2322C28.7915 15.2559 27.2085 15.2559 26.2322 16.2322C25.2559 17.2085 25.2559 18.7915 26.2322 19.7678L31.9645 25.5H18C16.6193 25.5 15.5 26.6193 15.5 28C15.5 29.3807 16.6193 30.5 18 30.5H31.9645L26.2322 36.2322Z" fill="white"/>
</svg>
