<svg width="56" height="56" viewBox="0 0 56 56" fill="none" xmlns="http://www.w3.org/2000/svg">
<path fill-rule="evenodd" clip-rule="evenodd" d="M28 5.5C15.5736 5.5 5.5 15.5736 5.5 28C5.5 40.4264 15.5736 50.5 28 50.5C40.4264 50.5 50.5 40.4264 50.5 28C50.5 15.5736 40.4264 5.5 28 5.5ZM0.5 28C0.5 12.8122 12.8122 0.5 28 0.5C43.1878 0.5 55.5 12.8122 55.5 28C55.5 43.1878 43.1878 55.5 28 55.5C12.8122 55.5 0.5 43.1878 0.5 28Z" fill="#151515"/>
<path d="M29.7678 19.7678C30.7441 18.7915 30.7441 17.2085 29.7678 16.2322C28.7915 15.2559 27.2085 15.2559 26.2322 16.2322L16.2322 26.2322C15.2559 27.2085 15.2559 28.7915 16.2322 29.7678L26.2322 39.7678C27.2085 40.7441 28.7915 40.7441 29.7678 39.7678C30.7441 38.7915 30.7441 37.2085 29.7678 36.2322L24.0355 30.5H38C39.3807 30.5 40.5 29.3807 40.5 28C40.5 26.6193 39.3807 25.5 38 25.5H24.0355L29.7678 19.7678Z" fill="#151515"/>
</svg>
