<svg width="55" height="55" viewBox="0 0 55 55" fill="none" xmlns="http://www.w3.org/2000/svg">
<ellipse cx="27.5182" cy="27.5" rx="27.4821" ry="27.5" fill="url(#paint0_linear)"/>
<path d="M36.5609 16.5H19.8497C17.9629 16.5 16.5254 17.9385 16.5254 19.8264V36.5486C16.5254 38.4365 17.9629 39.875 19.8497 39.875H36.5609C38.4476 39.875 39.8852 38.4365 39.8852 36.5486V19.8264C39.8852 17.9385 38.4476 16.5 36.5609 16.5ZM28.2053 35.2C32.0686 35.2 35.2132 32.1433 35.2132 28.4572C35.2132 27.8279 35.1234 27.1087 34.9437 26.5692H36.9203V36.099C36.9203 36.5486 36.5609 36.9981 36.0218 36.9981H20.3887C19.9395 36.9981 19.4903 36.6385 19.4903 36.099V26.4793H21.5567C21.377 27.1087 21.2872 27.738 21.2872 28.3673C21.1973 32.1433 24.3419 35.2 28.2053 35.2ZM28.2053 32.5029C25.6896 32.5029 23.713 30.525 23.713 28.0976C23.713 25.6702 25.6896 23.6923 28.2053 23.6923C30.7209 23.6923 32.6975 25.6702 32.6975 28.0976C32.6975 30.6149 30.7209 32.5029 28.2053 32.5029ZM36.8304 22.8832C36.8304 23.4226 36.3812 23.8721 35.8421 23.8721H33.3265C32.7874 23.8721 32.3382 23.4226 32.3382 22.8832V20.4558C32.3382 19.9163 32.7874 19.4668 33.3265 19.4668H35.8421C36.3812 19.4668 36.8304 19.9163 36.8304 20.4558V22.8832Z" fill="white"/>
<defs>
<linearGradient id="paint0_linear" x1="11.716" y1="48.8125" x2="48.1544" y2="11.0237" gradientUnits="userSpaceOnUse">
<stop stop-color="#333333"/>
<stop offset="0.502762" stop-color="#333333"/>
<stop offset="1" stop-color="#333333"/>
</linearGradient>
</defs>
</svg>
