<svg width="75" height="75" viewBox="0 0 75 75" fill="none" xmlns="http://www.w3.org/2000/svg">
<circle cx="37.5" cy="37.5" r="37.5" fill="white"/>
<path d="M49.8389 22.5H27.0361C24.4615 22.5 22.5 24.4615 22.5 27.0361V49.8389C22.5 52.4135 24.4615 54.375 27.0361 54.375H49.8389C52.4135 54.375 54.375 52.4135 54.375 49.8389V27.0361C54.375 24.4615 52.4135 22.5 49.8389 22.5ZM38.4375 48C43.7091 48 48 43.8317 48 38.8053C48 37.9471 47.8774 36.9663 47.6322 36.2308H50.3293V49.226C50.3293 49.8389 49.8389 50.4519 49.1034 50.4519H27.7716C27.1587 50.4519 26.5457 49.9615 26.5457 49.226V36.1082H29.3654C29.1202 36.9663 28.9976 37.8245 28.9976 38.6827C28.875 43.8317 33.1659 48 38.4375 48ZM38.4375 44.3221C35.0048 44.3221 32.3077 41.625 32.3077 38.3149C32.3077 35.0048 35.0048 32.3077 38.4375 32.3077C41.8702 32.3077 44.5673 35.0048 44.5673 38.3149C44.5673 41.7476 41.8702 44.3221 38.4375 44.3221ZM50.2067 31.2043C50.2067 31.9399 49.5938 32.5529 48.8582 32.5529H45.4255C44.6899 32.5529 44.0769 31.9399 44.0769 31.2043V27.8942C44.0769 27.1587 44.6899 26.5457 45.4255 26.5457H48.8582C49.5938 26.5457 50.2067 27.1587 50.2067 27.8942V31.2043Z" fill="#151515"/>
</svg>
