<svg width="93" height="37" viewBox="0 0 93 37" fill="none" xmlns="http://www.w3.org/2000/svg">
<path d="M29.77 3.2C29.77 4.94 29.2 6.76 28.06 8.66C26.94 10.56 25.38 12.22 23.38 13.64C21.4 15.04 19.35 15.92 17.23 16.28C16.01 18.74 15.13 20.46 14.59 21.44L13.96 22.46C17.92 23.44 21.2 24.93 23.8 26.93C25.12 27.95 26.01 29.2 26.47 30.68C26.71 31.44 26.83 32.09 26.83 32.63C26.83 33.17 26.72 33.62 26.5 33.98C26.3 34.36 26.06 34.62 25.78 34.76C25.5 34.9 25.3 34.97 25.18 34.97C25.06 34.97 25 34.92 25 34.82C25 34.72 25.11 34.42 25.33 33.92C25.57 33.44 25.69 32.87 25.69 32.21C25.69 31.55 25.55 30.82 25.27 30.02C24.99 29.22 24.47 28.48 23.71 27.8C22.95 27.14 21.89 26.52 20.53 25.94C19.19 25.34 18.02 24.92 17.02 24.68C16.04 24.42 14.72 24.13 13.06 23.81C11.36 26.19 9.59 27.82 7.75 28.7C6.65 29.24 5.67 29.51 4.81 29.51C3.97 29.51 3.22 29.34 2.56 29C1.42 28.44 0.85 27.59 0.85 26.45C0.85 25.31 1.6 24.31 3.1 23.45C4.8 22.45 7.1 21.95 10 21.95C11.04 21.95 11.98 22.03 12.82 22.19C13.72 20.79 14.77 18.86 15.97 16.4C15.85 16.4 15.74 16.4 15.64 16.4C14.38 16.4 13.21 16.19 12.13 15.77C11.05 15.35 10.19 14.78 9.55 14.06C8.71 13.12 8.29 12.06 8.29 10.88C8.29 10.26 8.44 9.59 8.74 8.87C9.06 8.15 9.75 7.42 10.81 6.68C11.89 5.94 13.25 5.38 14.89 5C15.15 4.94 15.37 4.91 15.55 4.91C15.73 4.91 15.84 4.96 15.88 5.06C15.92 5.16 15.84 5.25 15.64 5.33C15.44 5.41 15.21 5.47 14.95 5.51C14.09 5.61 13.29 5.9 12.55 6.38C11.27 7.2 10.38 8.46 9.88 10.16C9.76 10.56 9.7 10.95 9.7 11.33C9.7 11.69 9.77 12.13 9.91 12.65C10.05 13.17 10.35 13.71 10.81 14.27C11.27 14.81 11.89 15.19 12.67 15.41C13.47 15.63 14.16 15.74 14.74 15.74C15.34 15.74 15.89 15.71 16.39 15.65L18.94 9.23C20.7 4.71 22.8 1.93 25.24 0.89C25.88 0.629999 26.5 0.499999 27.1 0.499999C27.72 0.499999 28.3 0.699999 28.84 1.1C29.4 1.48 29.7 1.95 29.74 2.51C29.76 2.75 29.77 2.98 29.77 3.2ZM28.51 3.23C28.51 2.47 28.16 2.09 27.46 2.09C26.44 2.09 25.2 2.98 23.74 4.76C22.6 6.18 21.5 7.9 20.44 9.92C19.4 11.92 18.47 13.77 17.65 15.47C20.43 14.85 22.93 13.33 25.15 10.91C27.39 8.47 28.51 5.91 28.51 3.23ZM11.89 23.63C10.91 23.41 9.9 23.3 8.86 23.3C7.82 23.3 6.75 23.45 5.65 23.75C3.35 24.35 2 25.2 1.6 26.3C1.52 26.5 1.48 26.69 1.48 26.87C1.48 27.39 1.76 27.81 2.32 28.13C2.9 28.47 3.53 28.64 4.21 28.64C5.15 28.64 6.17 28.38 7.27 27.86C8.93 27.06 10.47 25.65 11.89 23.63ZM29.5274 15.5C30.9874 15.5 31.7174 16.42 31.7174 18.26C31.7174 19.1 31.4974 20 31.0574 20.96C30.4974 22.26 29.6574 23.44 28.5374 24.5C28.7974 25 29.2674 25.25 29.9474 25.25C30.4874 25.25 30.9974 24.98 31.4774 24.44C32.0774 23.82 32.5074 23.28 32.7674 22.82C33.0274 22.34 33.2174 21.99 33.3374 21.77C33.4574 21.55 33.6074 21.24 33.7874 20.84C33.9874 20.42 34.1074 20.17 34.1474 20.09C34.1874 19.99 34.2574 19.94 34.3574 19.94C34.5574 19.92 34.6574 19.99 34.6574 20.15C34.6574 20.21 34.6374 20.28 34.5974 20.36L34.4174 20.78C34.2974 21.06 34.2074 21.26 34.1474 21.38C34.0874 21.5 33.9774 21.72 33.8174 22.04C33.6774 22.34 33.5474 22.58 33.4274 22.76C33.3274 22.94 33.1774 23.18 32.9774 23.48C32.7974 23.78 32.6274 24.02 32.4674 24.2C32.3274 24.38 32.1474 24.58 31.9274 24.8C31.7074 25.02 31.4974 25.19 31.2974 25.31C30.7974 25.61 30.3274 25.76 29.8874 25.76C29.0674 25.76 28.4274 25.5 27.9674 24.98C27.0474 25.66 26.1974 26 25.4174 26C23.9574 26 23.2274 25.08 23.2274 23.24C23.2274 22.4 23.4474 21.5 23.8874 20.54C24.4874 19.14 25.3274 17.95 26.4074 16.97C27.5074 15.99 28.5474 15.5 29.5274 15.5ZM29.8574 16.43C29.3174 16.43 28.6774 16.79 27.9374 17.51C27.1974 18.23 26.5374 19.21 25.9574 20.45C25.2574 21.89 24.9074 23.07 24.9074 23.99C24.9074 24.91 25.2574 25.37 25.9574 25.37C26.4574 25.37 27.0174 25.1 27.6374 24.56C27.3174 24.1 27.1574 23.61 27.1574 23.09C27.1974 22.23 27.5474 21.8 28.2074 21.8C28.4674 21.8 28.6774 21.89 28.8374 22.07C29.0174 22.25 29.1074 22.42 29.1074 22.58C29.1074 22.72 29.0874 22.87 29.0474 23.03C29.3874 22.53 29.7774 21.82 30.2174 20.9C30.7174 19.88 30.9674 18.88 30.9674 17.9C30.9674 16.92 30.5974 16.43 29.8574 16.43ZM30.5762 36.44C29.4762 36.44 28.9262 35.89 28.9262 34.79C28.9262 33.21 29.9562 29.99 32.0162 25.13C31.7762 24.73 31.6562 24.4 31.6562 24.14C31.6562 23.3 31.8462 22.74 32.2262 22.46C32.5063 22.22 32.7363 22.1 32.9163 22.1C33.1163 22.1 33.2463 22.11 33.3063 22.13C35.5863 16.99 37.6363 12.72 39.4563 9.32C39.8163 8.6 40.1863 8.07 40.5663 7.73C40.9463 7.39 41.4263 7.22 42.0063 7.22C42.0863 7.22 42.2863 7.25 42.6063 7.31C42.9263 7.37 43.1663 7.39 43.3263 7.37C42.3863 8.25 41.0663 10.19 39.3663 13.19C37.6663 16.19 36.0563 19.4 34.5363 22.82C34.9963 23.38 35.3163 24.13 35.4963 25.07L35.5863 25.46C35.6263 25.46 35.6563 25.46 35.6763 25.46C36.2163 25.46 36.7863 25.15 37.3863 24.53C37.9863 23.89 38.4763 23.24 38.8563 22.58C39.2363 21.9 39.5463 21.31 39.7863 20.81C40.0263 20.29 40.1763 20.01 40.2363 19.97C40.2963 19.93 40.3462 19.92 40.3863 19.94C40.4463 19.94 40.4963 19.96 40.5363 20C40.5763 20.02 40.5963 20.07 40.5963 20.15C40.5963 20.21 40.5763 20.28 40.5363 20.36C38.8763 24.14 37.2463 26.03 35.6463 26.03C35.6663 26.35 35.6763 26.87 35.6763 27.59C35.6763 28.33 35.4963 29.42 35.1363 30.86C34.7763 32.3 34.1663 33.59 33.3063 34.73C32.4663 35.87 31.5562 36.44 30.5762 36.44ZM30.5462 34.79C30.5462 35.37 30.7062 35.66 31.0262 35.66C31.4062 35.66 31.9262 35.21 32.5863 34.31C33.2663 33.43 33.8363 32.21 34.2963 30.65C34.7763 29.11 35.0163 27.71 35.0163 26.45C35.0163 26.35 35.0163 26.25 35.0163 26.15C34.9163 26.15 34.8263 26.15 34.7463 26.15C34.1663 26.15 33.6763 25.99 33.2763 25.67C31.4562 30.27 30.5462 33.31 30.5462 34.79ZM34.7763 25.58H34.9563C34.8963 24.72 34.6563 24.03 34.2363 23.51L33.5763 25.01C33.7763 25.39 34.1763 25.58 34.7763 25.58ZM39.3135 23.6C39.3135 21.94 40.1135 19.16 41.7135 15.26H40.1535C40.0535 15.26 39.9835 15.21 39.9435 15.11C39.9235 14.99 39.9335 14.88 39.9735 14.78C40.0335 14.66 40.1135 14.6 40.2135 14.6H42.0135C42.7335 13.02 43.4035 11.7 44.0235 10.64C44.6435 9.58 45.2135 8.87 45.7335 8.51C46.2535 8.13 46.6235 7.94 46.8435 7.94C47.0835 7.94 47.2535 7.96 47.3535 8C47.8135 8.22 48.0435 8.68 48.0435 9.38C48.0435 10.06 47.8135 10.89 47.3535 11.87C46.8935 12.85 46.4435 13.76 46.0035 14.6H47.4435C47.5435 14.6 47.6035 14.66 47.6235 14.78C47.6635 14.88 47.6535 14.99 47.5935 15.11C47.5535 15.21 47.4835 15.26 47.3835 15.26H45.6435C44.5435 17.12 43.2135 18.77 41.6535 20.21L40.9635 23.27C40.9035 23.53 40.8735 23.79 40.8735 24.05C40.8735 24.29 40.9435 24.54 41.0835 24.8C41.2235 25.06 41.4435 25.19 41.7435 25.19C42.0835 25.19 42.4635 25.07 42.8835 24.83C43.8435 24.11 44.9035 22.6 46.0635 20.3C46.1435 20.12 46.2335 20.01 46.3335 19.97C46.4535 19.93 46.5235 19.96 46.5435 20.06C46.5635 20.14 46.5335 20.28 46.4535 20.48C45.7935 21.86 45.2735 22.84 44.8935 23.42C43.8135 25.16 42.6635 26.03 41.4435 26.03C40.8235 26.03 40.3135 25.8 39.9135 25.34C39.5135 24.88 39.3135 24.3 39.3135 23.6ZM45.3435 14.6C46.6635 12.24 47.3235 10.6 47.3235 9.68C47.3235 9.28 47.2535 9.08 47.1135 9.08C46.8935 9.08 46.5535 9.4 46.0935 10.04C45.6535 10.68 44.9035 12.2 43.8435 14.6H45.3435ZM44.9535 15.26H43.5435C43.3035 15.82 42.7635 17.15 41.9235 19.25C43.0035 18.13 44.0135 16.8 44.9535 15.26ZM51.4094 24.65C51.4094 25.21 51.6094 25.49 52.0094 25.49C52.9494 25.49 54.2794 23.73 55.9994 20.21C56.1394 19.93 56.2594 19.82 56.3594 19.88C56.4794 19.94 56.5394 20.02 56.5394 20.12C56.5394 20.22 56.4194 20.51 56.1794 20.99C55.9594 21.45 55.7294 21.9 55.4894 22.34C55.2694 22.76 54.9394 23.32 54.4994 24.02C53.5794 25.42 52.5994 26.12 51.5594 26.12C50.8794 26.12 50.3394 25.84 49.9394 25.28C49.7594 25.02 49.6694 24.67 49.6694 24.23C49.6694 23.77 49.7694 23.22 49.9694 22.58C50.1694 21.94 50.7194 20.9 51.6194 19.46C51.8394 19.1 51.9494 18.82 51.9494 18.62C51.9494 18.4 51.7794 18.29 51.4394 18.29C51.0994 18.29 50.4494 18.74 49.4894 19.64C48.0494 20.96 46.6494 22.94 45.2894 25.58C45.1494 25.88 44.7794 26.03 44.1794 26.03C43.6394 26.07 43.2994 26.13 43.1594 26.21C46.9594 18.31 49.7094 12.8 51.4094 9.68C51.7894 8.98 52.1194 8.49 52.3994 8.21C52.6994 7.93 53.0494 7.79 53.4494 7.79C53.5494 7.79 53.7594 7.82 54.0794 7.88C54.3994 7.92 54.6394 7.93 54.7994 7.91C54.1994 8.53 53.1194 10.25 51.5594 13.07C50.0194 15.87 48.5394 18.72 47.1194 21.62C48.0594 20.44 48.8994 19.52 49.6394 18.86C50.3994 18.2 51.3194 17.58 52.3994 17C53.4794 16.4 54.2694 16.1 54.7694 16.1C54.8894 16.1 54.9994 16.12 55.0994 16.16C52.6394 20.48 51.4094 23.31 51.4094 24.65ZM61.4903 15.5C62.9503 15.5 63.6803 16.42 63.6803 18.26C63.6803 19.1 63.4603 20 63.0203 20.96C62.4603 22.26 61.6203 23.44 60.5003 24.5C60.7603 25 61.2303 25.25 61.9103 25.25C62.4503 25.25 62.9603 24.98 63.4403 24.44C64.0403 23.82 64.4703 23.28 64.7303 22.82C64.9903 22.34 65.1803 21.99 65.3003 21.77C65.4203 21.55 65.5703 21.24 65.7503 20.84C65.9503 20.42 66.0703 20.17 66.1103 20.09C66.1503 19.99 66.2203 19.94 66.3203 19.94C66.5203 19.92 66.6203 19.99 66.6203 20.15C66.6203 20.21 66.6003 20.28 66.5603 20.36L66.3803 20.78C66.2603 21.06 66.1703 21.26 66.1103 21.38C66.0503 21.5 65.9403 21.72 65.7803 22.04C65.6403 22.34 65.5103 22.58 65.3903 22.76C65.2903 22.94 65.1403 23.18 64.9403 23.48C64.7603 23.78 64.5903 24.02 64.4303 24.2C64.2903 24.38 64.1103 24.58 63.8903 24.8C63.6703 25.02 63.4603 25.19 63.2603 25.31C62.7603 25.61 62.2903 25.76 61.8503 25.76C61.0303 25.76 60.3903 25.5 59.9303 24.98C59.0103 25.66 58.1603 26 57.3803 26C55.9203 26 55.1903 25.08 55.1903 23.24C55.1903 22.4 55.4103 21.5 55.8503 20.54C56.4503 19.14 57.2903 17.95 58.3703 16.97C59.4703 15.99 60.5103 15.5 61.4903 15.5ZM61.8203 16.43C61.2803 16.43 60.6403 16.79 59.9003 17.51C59.1603 18.23 58.5003 19.21 57.9203 20.45C57.2203 21.89 56.8703 23.07 56.8703 23.99C56.8703 24.91 57.2203 25.37 57.9203 25.37C58.4203 25.37 58.9803 25.1 59.6003 24.56C59.2803 24.1 59.1203 23.61 59.1203 23.09C59.1603 22.23 59.5103 21.8 60.1703 21.8C60.4303 21.8 60.6403 21.89 60.8003 22.07C60.9803 22.25 61.0703 22.42 61.0703 22.58C61.0703 22.72 61.0503 22.87 61.0103 23.03C61.3503 22.53 61.7403 21.82 62.1803 20.9C62.6803 19.88 62.9303 18.88 62.9303 17.9C62.9303 16.92 62.5603 16.43 61.8203 16.43ZM65.0291 24.26C65.0291 23.4 65.3991 22.36 66.1391 21.14C65.8191 21.14 65.7291 20.98 65.8691 20.66L66.4091 19.61C67.0891 18.31 67.6491 17.21 68.0891 16.31C68.2891 15.89 68.6791 15.68 69.2591 15.68H71.0891C70.3691 16.2 69.6391 17.21 68.8991 18.71C68.1791 20.19 67.6191 21.36 67.2191 22.22C66.8191 23.06 66.6191 23.7 66.6191 24.14C66.6191 24.58 66.6891 24.89 66.8291 25.07C66.9891 25.25 67.1991 25.34 67.4591 25.34C67.8391 25.34 68.3691 24.94 69.0491 24.14C70.1091 22.9 71.5991 20.29 73.5191 16.31C73.7391 15.89 74.1291 15.68 74.6891 15.68H76.3091C75.8691 16.02 75.5191 16.37 75.2591 16.73C75.0191 17.09 74.6791 17.73 74.2391 18.65C73.0391 21.05 72.3691 22.64 72.2291 23.42C72.1691 23.7 72.1391 23.96 72.1391 24.2C72.1391 24.84 72.3591 25.18 72.7991 25.22C73.8791 25.22 75.2091 23.55 76.7891 20.21C76.9091 19.93 77.0291 19.82 77.1491 19.88C77.2691 19.94 77.3291 20.02 77.3291 20.12C77.3291 20.22 77.2391 20.45 77.0591 20.81C76.8791 21.17 76.6991 21.52 76.5191 21.86C76.3591 22.2 76.0991 22.67 75.7391 23.27C75.3991 23.85 75.0791 24.31 74.7791 24.65C73.9991 25.53 73.2291 25.97 72.4691 25.97C71.7291 25.97 71.2191 25.64 70.9391 24.98C70.8191 24.68 70.7591 24.3 70.7591 23.84C70.7591 23.38 70.8591 22.81 71.0591 22.13C69.5991 24.69 68.2491 25.97 67.0091 25.97C65.9291 25.97 65.2991 25.52 65.1191 24.62C65.0591 24.52 65.0291 24.4 65.0291 24.26ZM79.3525 25.43C79.6125 25.47 79.7925 25.49 79.8925 25.49C80.6925 25.49 81.4825 25.02 82.2625 24.08C82.6825 23.56 83.4325 22.25 84.5125 20.15C84.5525 20.05 84.6225 20 84.7225 20C84.9025 19.98 84.9925 20.05 84.9925 20.21C84.9925 20.25 84.9425 20.37 84.8425 20.57C84.7625 20.75 84.6825 20.94 84.6025 21.14C84.5225 21.32 84.3925 21.59 84.2125 21.95C84.0325 22.31 83.8725 22.6 83.7325 22.82C83.6125 23.04 83.4525 23.31 83.2525 23.63C83.0525 23.95 82.8525 24.2 82.6525 24.38L82.0225 25.04C81.6825 25.38 81.2825 25.62 80.8225 25.76C80.0825 26 79.3625 26.02 78.6625 25.82C78.2025 26.02 77.7925 26.12 77.4325 26.12C76.0125 26.12 75.1525 25.56 74.8525 24.44C74.7925 24.18 74.7625 23.87 74.7625 23.51C74.7625 23.13 74.8825 22.77 75.1225 22.43C75.3825 22.09 75.6525 21.91 75.9325 21.89C76.9525 19.95 77.8225 18.2 78.5425 16.64C79.3425 14.94 80.2725 14.09 81.3325 14.09C81.6125 14.09 81.8825 14.16 82.1425 14.3C82.4225 14.42 82.5225 14.56 82.4425 14.72C82.3825 14.88 82.2425 14.91 82.0225 14.81C81.8025 14.71 81.6125 14.66 81.4525 14.66C81.2925 14.66 81.1525 14.69 81.0325 14.75C80.3525 15.07 80.0125 15.76 80.0125 16.82C80.0125 17.38 80.0925 17.84 80.2525 18.2C80.4125 18.56 80.5925 18.95 80.7925 19.37C81.2525 20.41 81.4825 21.26 81.4825 21.92C81.4825 22.58 81.2725 23.23 80.8525 23.87C80.4325 24.51 79.9325 25.03 79.3525 25.43ZM78.3325 25.22C79.2125 24.54 79.6525 23.44 79.6525 21.92C79.6525 21.3 79.5825 20.45 79.4425 19.37C79.3025 18.29 79.2325 17.56 79.2325 17.18C79.2325 16.8 79.2425 16.54 79.2625 16.4C77.7425 19.44 76.8025 21.29 76.4425 21.95C76.8625 21.95 77.0725 22.25 77.0725 22.85C77.0725 24.03 77.4925 24.82 78.3325 25.22ZM76.0825 24.41C76.0825 24.53 76.0925 24.66 76.1125 24.8C76.2725 25.34 76.6425 25.61 77.2225 25.61C77.4625 25.61 77.6625 25.57 77.8225 25.49C77.0825 25.03 76.6825 24.28 76.6225 23.24C76.2625 23.6 76.0825 23.99 76.0825 24.41ZM85.7683 21.38C85.4883 22.06 85.3483 22.82 85.3483 23.66C85.3483 24.22 85.4683 24.67 85.7083 25.01C85.9683 25.33 86.3283 25.49 86.7883 25.49C88.6083 25.49 90.2583 23.78 91.7383 20.36C91.8783 20.04 92.0483 19.9 92.2483 19.94C92.3283 19.96 92.3683 20.01 92.3683 20.09C92.3683 20.17 92.1383 20.7 91.6783 21.68C91.2383 22.64 90.7883 23.42 90.3283 24.02C89.3083 25.42 88.0483 26.12 86.5483 26.12C85.7483 26.12 85.0683 25.86 84.5083 25.34C83.9483 24.82 83.6683 24.11 83.6683 23.21C83.6683 22.31 83.8783 21.36 84.2983 20.36C84.7383 19.34 85.3283 18.4 86.0683 17.54C86.8083 16.66 87.6583 16.02 88.6183 15.62C89.0783 15.42 89.5183 15.32 89.9383 15.32C90.3583 15.32 90.7483 15.44 91.1083 15.68C91.4483 15.96 91.6183 16.27 91.6183 16.61C91.6183 17.81 90.8983 18.96 89.4583 20.06C89.0183 20.4 88.3983 20.71 87.5983 20.99C86.7983 21.25 86.1883 21.38 85.7683 21.38ZM90.8083 16.58C90.8083 16.18 90.6483 15.98 90.3283 15.98C89.7683 15.98 88.9183 16.67 87.7783 18.05C87.0983 18.89 86.4983 19.83 85.9783 20.87C86.3183 20.87 86.8083 20.75 87.4483 20.51C88.1083 20.27 88.6783 19.95 89.1583 19.55C90.2583 18.61 90.8083 17.62 90.8083 16.58Z" fill="#151515"/>
</svg>
