<svg width="169" height="67" viewBox="0 0 169 67" fill="none" xmlns="http://www.w3.org/2000/svg">
<path d="M53.745 5.2C53.745 8.39 52.7 11.7267 50.61 15.21C48.5567 18.6933 45.6967 21.7367 42.03 24.34C38.4 26.9067 34.6417 28.52 30.755 29.18C28.5183 33.69 26.905 36.8433 25.915 38.64L24.76 40.51C32.02 42.3067 38.0333 45.0383 42.8 48.705C45.22 50.575 46.8517 52.8667 47.695 55.58C48.135 56.9733 48.355 58.165 48.355 59.155C48.355 60.145 48.1533 60.97 47.75 61.63C47.3833 62.3267 46.9433 62.8033 46.43 63.06C45.9167 63.3167 45.55 63.445 45.33 63.445C45.11 63.445 45 63.3533 45 63.17C45 62.9867 45.2017 62.4367 45.605 61.52C46.045 60.64 46.265 59.595 46.265 58.385C46.265 57.175 46.0083 55.8367 45.495 54.37C44.9817 52.9033 44.0283 51.5467 42.635 50.3C41.2417 49.09 39.2983 47.9533 36.805 46.89C34.3483 45.79 32.2033 45.02 30.37 44.58C28.5733 44.1033 26.1533 43.5717 23.11 42.985C19.9933 47.3483 16.7483 50.3367 13.375 51.95C11.3583 52.94 9.56167 53.435 7.985 53.435C6.445 53.435 5.07 53.1233 3.86 52.5C1.77 51.4733 0.725 49.915 0.725 47.825C0.725 45.735 2.1 43.9017 4.85 42.325C7.96667 40.4917 12.1833 39.575 17.5 39.575C19.4067 39.575 21.13 39.7217 22.67 40.015C24.32 37.4483 26.245 33.91 28.445 29.4C28.225 29.4 28.0233 29.4 27.84 29.4C25.53 29.4 23.385 29.015 21.405 28.245C19.425 27.475 17.8483 26.43 16.675 25.11C15.135 23.3867 14.365 21.4433 14.365 19.28C14.365 18.1433 14.64 16.915 15.19 15.595C15.7767 14.275 17.0417 12.9367 18.985 11.58C20.965 10.2233 23.4583 9.19666 26.465 8.5C26.9417 8.39 27.345 8.335 27.675 8.335C28.005 8.335 28.2067 8.42667 28.28 8.61C28.3533 8.79333 28.2067 8.95833 27.84 9.105C27.4733 9.25166 27.0517 9.36166 26.575 9.435C24.9983 9.61833 23.5317 10.15 22.175 11.03C19.8283 12.5333 18.1967 14.8433 17.28 17.96C17.06 18.6933 16.95 19.4083 16.95 20.105C16.95 20.765 17.0783 21.5717 17.335 22.525C17.5917 23.4783 18.1417 24.4683 18.985 25.495C19.8283 26.485 20.965 27.1817 22.395 27.585C23.8617 27.9883 25.1267 28.19 26.19 28.19C27.29 28.19 28.2983 28.135 29.215 28.025L33.89 16.255C37.1167 7.96833 40.9667 2.87167 45.44 0.964999C46.6133 0.488332 47.75 0.249999 48.85 0.249999C49.9867 0.249999 51.05 0.616665 52.04 1.35C53.0667 2.04666 53.6167 2.90833 53.69 3.935C53.7267 4.375 53.745 4.79666 53.745 5.2ZM51.435 5.255C51.435 3.86166 50.7933 3.165 49.51 3.165C47.64 3.165 45.3667 4.79666 42.69 8.06C40.6 10.6633 38.5833 13.8167 36.64 17.52C34.7333 21.1867 33.0283 24.5783 31.525 27.695C36.6217 26.5583 41.205 23.7717 45.275 19.335C49.3817 14.8617 51.435 10.1683 51.435 5.255ZM20.965 42.655C19.1683 42.2517 17.3167 42.05 15.41 42.05C13.5033 42.05 11.5417 42.325 9.525 42.875C5.30833 43.975 2.83333 45.5333 2.1 47.55C1.95333 47.9167 1.88 48.265 1.88 48.595C1.88 49.5483 2.39333 50.3183 3.42 50.905C4.48333 51.5283 5.63833 51.84 6.885 51.84C8.60833 51.84 10.4783 51.3633 12.495 50.41C15.5383 48.9433 18.3617 46.3583 20.965 42.655ZM53.3003 27.75C55.9769 27.75 57.3153 29.4367 57.3153 32.81C57.3153 34.35 56.9119 36 56.1053 37.76C55.0786 40.1433 53.5386 42.3067 51.4853 44.25C51.9619 45.1667 52.8236 45.625 54.0703 45.625C55.0603 45.625 55.9953 45.13 56.8753 44.14C57.9753 43.0033 58.7636 42.0133 59.2403 41.17C59.7169 40.29 60.0653 39.6483 60.2853 39.245C60.5053 38.8417 60.7803 38.2733 61.1103 37.54C61.4769 36.77 61.6969 36.3117 61.7703 36.165C61.8436 35.9817 61.9719 35.89 62.1553 35.89C62.5219 35.8533 62.7053 35.9817 62.7053 36.275C62.7053 36.385 62.6686 36.5133 62.5953 36.66L62.2653 37.43C62.0453 37.9433 61.8803 38.31 61.7703 38.53C61.6603 38.75 61.4586 39.1533 61.1653 39.74C60.9086 40.29 60.6703 40.73 60.4503 41.06C60.2669 41.39 59.9919 41.83 59.6253 42.38C59.2953 42.93 58.9836 43.37 58.6903 43.7C58.4336 44.03 58.1036 44.3967 57.7003 44.8C57.2969 45.2033 56.9119 45.515 56.5453 45.735C55.6286 46.285 54.7669 46.56 53.9603 46.56C52.4569 46.56 51.2836 46.0833 50.4403 45.13C48.7536 46.3767 47.1953 47 45.7653 47C43.0886 47 41.7503 45.3133 41.7503 41.94C41.7503 40.4 42.1536 38.75 42.9603 36.99C44.0603 34.4233 45.6003 32.2417 47.5803 30.445C49.5969 28.6483 51.5036 27.75 53.3003 27.75ZM53.9053 29.455C52.9153 29.455 51.7419 30.115 50.3853 31.435C49.0286 32.755 47.8186 34.5517 46.7553 36.825C45.4719 39.465 44.8303 41.6283 44.8303 43.315C44.8303 45.0017 45.4719 45.845 46.7553 45.845C47.6719 45.845 48.6986 45.35 49.8353 44.36C49.2486 43.5167 48.9553 42.6183 48.9553 41.665C49.0286 40.0883 49.6703 39.3 50.8803 39.3C51.3569 39.3 51.7419 39.465 52.0353 39.795C52.3653 40.125 52.5303 40.4367 52.5303 40.73C52.5303 40.9867 52.4936 41.2617 52.4203 41.555C53.0436 40.6383 53.7586 39.3367 54.5653 37.65C55.4819 35.78 55.9403 33.9467 55.9403 32.15C55.9403 30.3533 55.2619 29.455 53.9053 29.455ZM55.2231 66.14C53.2065 66.14 52.1981 65.1317 52.1981 63.115C52.1981 60.2183 54.0865 54.315 57.8631 45.405C57.4231 44.6717 57.2031 44.0667 57.2031 43.59C57.2031 42.05 57.5515 41.0233 58.2481 40.51C58.7615 40.07 59.1831 39.85 59.5131 39.85C59.8798 39.85 60.1181 39.8683 60.2281 39.905C64.4081 30.4817 68.1665 22.6533 71.5031 16.42C72.1631 15.1 72.8415 14.1283 73.5381 13.505C74.2348 12.8817 75.1148 12.57 76.1781 12.57C76.3248 12.57 76.6915 12.625 77.2781 12.735C77.8648 12.845 78.3048 12.8817 78.5981 12.845C76.8748 14.4583 74.4548 18.015 71.3381 23.515C68.2215 29.015 65.2698 34.9 62.4831 41.17C63.3265 42.1967 63.9131 43.5717 64.2431 45.295L64.4081 46.01C64.4815 46.01 64.5365 46.01 64.5731 46.01C65.5631 46.01 66.6081 45.4417 67.7081 44.305C68.8081 43.1317 69.7065 41.94 70.4031 40.73C71.0998 39.4833 71.6681 38.4017 72.1081 37.485C72.5481 36.5317 72.8231 36.0183 72.9331 35.945C73.0431 35.8717 73.1348 35.8533 73.2081 35.89C73.3181 35.89 73.4098 35.9267 73.4831 36C73.5565 36.0367 73.5931 36.1283 73.5931 36.275C73.5931 36.385 73.5565 36.5133 73.4831 36.66C70.4398 43.59 67.4515 47.055 64.5181 47.055C64.5548 47.6417 64.5731 48.595 64.5731 49.915C64.5731 51.2717 64.2431 53.27 63.5831 55.91C62.9231 58.55 61.8048 60.915 60.2281 63.005C58.6881 65.095 57.0198 66.14 55.2231 66.14ZM55.1681 63.115C55.1681 64.1783 55.4615 64.71 56.0481 64.71C56.7448 64.71 57.6981 63.885 58.9081 62.235C60.1548 60.6217 61.1998 58.385 62.0431 55.525C62.9231 52.7017 63.3631 50.135 63.3631 47.825C63.3631 47.6417 63.3631 47.4583 63.3631 47.275C63.1798 47.275 63.0148 47.275 62.8681 47.275C61.8048 47.275 60.9065 46.9817 60.1731 46.395C56.8365 54.8283 55.1681 60.4017 55.1681 63.115ZM62.9231 46.23H63.2531C63.1431 44.6533 62.7031 43.3883 61.9331 42.435L60.7231 45.185C61.0898 45.8817 61.8231 46.23 62.9231 46.23ZM71.2414 42.6C71.2414 39.5567 72.7081 34.46 75.6414 27.31H72.7814C72.5981 27.31 72.4698 27.2183 72.3964 27.035C72.3598 26.815 72.3781 26.6133 72.4514 26.43C72.5614 26.21 72.7081 26.1 72.8914 26.1H76.1914C77.5114 23.2033 78.7398 20.7833 79.8764 18.84C81.0131 16.8967 82.0581 15.595 83.0114 14.935C83.9648 14.2383 84.6431 13.89 85.0464 13.89C85.4864 13.89 85.7981 13.9267 85.9814 14C86.8248 14.4033 87.2464 15.2467 87.2464 16.53C87.2464 17.7767 86.8248 19.2983 85.9814 21.095C85.1381 22.8917 84.3131 24.56 83.5064 26.1H86.1464C86.3298 26.1 86.4398 26.21 86.4764 26.43C86.5498 26.6133 86.5314 26.815 86.4214 27.035C86.3481 27.2183 86.2198 27.31 86.0364 27.31H82.8464C80.8298 30.72 78.3914 33.745 75.5314 36.385L74.2664 41.995C74.1564 42.4717 74.1014 42.9483 74.1014 43.425C74.1014 43.865 74.2298 44.3233 74.4864 44.8C74.7431 45.2767 75.1464 45.515 75.6964 45.515C76.3198 45.515 77.0164 45.295 77.7864 44.855C79.5464 43.535 81.4898 40.7667 83.6164 36.55C83.7631 36.22 83.9281 36.0183 84.1114 35.945C84.3314 35.8717 84.4598 35.9267 84.4964 36.11C84.5331 36.2567 84.4781 36.5133 84.3314 36.88C83.1214 39.41 82.1681 41.2067 81.4714 42.27C79.4914 45.46 77.3831 47.055 75.1464 47.055C74.0098 47.055 73.0748 46.6333 72.3414 45.79C71.6081 44.9467 71.2414 43.8833 71.2414 42.6ZM82.2964 26.1C84.7164 21.7733 85.9264 18.7667 85.9264 17.08C85.9264 16.3467 85.7981 15.98 85.5414 15.98C85.1381 15.98 84.5148 16.5667 83.6714 17.74C82.8648 18.9133 81.4898 21.7 79.5464 26.1H82.2964ZM81.5814 27.31H78.9964C78.5564 28.3367 77.5664 30.775 76.0264 34.625C78.0064 32.5717 79.8581 30.1333 81.5814 27.31ZM93.4172 44.525C93.4172 45.5517 93.7839 46.065 94.5172 46.065C96.2405 46.065 98.6789 42.8383 101.832 36.385C102.089 35.8717 102.309 35.67 102.492 35.78C102.712 35.89 102.822 36.0367 102.822 36.22C102.822 36.4033 102.602 36.935 102.162 37.815C101.759 38.6583 101.337 39.4833 100.897 40.29C100.494 41.06 99.8889 42.0867 99.0822 43.37C97.3955 45.9367 95.5989 47.22 93.6922 47.22C92.4455 47.22 91.4555 46.7067 90.7222 45.68C90.3922 45.2033 90.2272 44.5617 90.2272 43.755C90.2272 42.9117 90.4105 41.9033 90.7772 40.73C91.1439 39.5567 92.1522 37.65 93.8022 35.01C94.2055 34.35 94.4072 33.8367 94.4072 33.47C94.4072 33.0667 94.0955 32.865 93.4722 32.865C92.8489 32.865 91.6572 33.69 89.8972 35.34C87.2572 37.76 84.6905 41.39 82.1972 46.23C81.9405 46.78 81.2622 47.055 80.1622 47.055C79.1722 47.1283 78.5489 47.2383 78.2922 47.385C85.2589 32.9017 90.3005 22.8 93.4172 17.08C94.1139 15.7967 94.7189 14.8983 95.2322 14.385C95.7822 13.8717 96.4239 13.615 97.1572 13.615C97.3405 13.615 97.7255 13.67 98.3122 13.78C98.8989 13.8533 99.3389 13.8717 99.6322 13.835C98.5322 14.9717 96.5522 18.125 93.6922 23.295C90.8689 28.4283 88.1555 33.6533 85.5522 38.97C87.2755 36.8067 88.8155 35.12 90.1722 33.91C91.5655 32.7 93.2522 31.5633 95.2322 30.5C97.2122 29.4 98.6605 28.85 99.5772 28.85C99.7972 28.85 99.9989 28.8867 100.182 28.96C95.6722 36.88 93.4172 42.0683 93.4172 44.525ZM111.899 27.75C114.576 27.75 115.914 29.4367 115.914 32.81C115.914 34.35 115.511 36 114.704 37.76C113.677 40.1433 112.137 42.3067 110.084 44.25C110.561 45.1667 111.422 45.625 112.669 45.625C113.659 45.625 114.594 45.13 115.474 44.14C116.574 43.0033 117.362 42.0133 117.839 41.17C118.316 40.29 118.664 39.6483 118.884 39.245C119.104 38.8417 119.379 38.2733 119.709 37.54C120.076 36.77 120.296 36.3117 120.369 36.165C120.442 35.9817 120.571 35.89 120.754 35.89C121.121 35.8533 121.304 35.9817 121.304 36.275C121.304 36.385 121.267 36.5133 121.194 36.66L120.864 37.43C120.644 37.9433 120.479 38.31 120.369 38.53C120.259 38.75 120.057 39.1533 119.764 39.74C119.507 40.29 119.269 40.73 119.049 41.06C118.866 41.39 118.591 41.83 118.224 42.38C117.894 42.93 117.582 43.37 117.289 43.7C117.032 44.03 116.702 44.3967 116.299 44.8C115.896 45.2033 115.511 45.515 115.144 45.735C114.227 46.285 113.366 46.56 112.559 46.56C111.056 46.56 109.882 46.0833 109.039 45.13C107.352 46.3767 105.794 47 104.364 47C101.687 47 100.349 45.3133 100.349 41.94C100.349 40.4 100.752 38.75 101.559 36.99C102.659 34.4233 104.199 32.2417 106.179 30.445C108.196 28.6483 110.102 27.75 111.899 27.75ZM112.504 29.455C111.514 29.455 110.341 30.115 108.984 31.435C107.627 32.755 106.417 34.5517 105.354 36.825C104.071 39.465 103.429 41.6283 103.429 43.315C103.429 45.0017 104.071 45.845 105.354 45.845C106.271 45.845 107.297 45.35 108.434 44.36C107.847 43.5167 107.554 42.6183 107.554 41.665C107.627 40.0883 108.269 39.3 109.479 39.3C109.956 39.3 110.341 39.465 110.634 39.795C110.964 40.125 111.129 40.4367 111.129 40.73C111.129 40.9867 111.092 41.2617 111.019 41.555C111.642 40.6383 112.357 39.3367 113.164 37.65C114.081 35.78 114.539 33.9467 114.539 32.15C114.539 30.3533 113.861 29.455 112.504 29.455ZM118.387 43.81C118.387 42.2333 119.065 40.3267 120.422 38.09C119.835 38.09 119.67 37.7967 119.927 37.21L120.917 35.285C122.163 32.9017 123.19 30.885 123.997 29.235C124.363 28.465 125.078 28.08 126.142 28.08H129.497C128.177 29.0333 126.838 30.885 125.482 33.635C124.162 36.3483 123.135 38.4933 122.402 40.07C121.668 41.61 121.302 42.7833 121.302 43.59C121.302 44.3967 121.43 44.965 121.687 45.295C121.98 45.625 122.365 45.79 122.842 45.79C123.538 45.79 124.51 45.0567 125.757 43.59C127.7 41.3167 130.432 36.5317 133.952 29.235C134.355 28.465 135.07 28.08 136.097 28.08H139.067C138.26 28.7033 137.618 29.345 137.142 30.005C136.702 30.665 136.078 31.8383 135.272 33.525C133.072 37.925 131.843 40.84 131.587 42.27C131.477 42.7833 131.422 43.26 131.422 43.7C131.422 44.8733 131.825 45.4967 132.632 45.57C134.612 45.57 137.05 42.5083 139.947 36.385C140.167 35.8717 140.387 35.67 140.607 35.78C140.827 35.89 140.937 36.0367 140.937 36.22C140.937 36.4033 140.772 36.825 140.442 37.485C140.112 38.145 139.782 38.7867 139.452 39.41C139.158 40.0333 138.682 40.895 138.022 41.995C137.398 43.0583 136.812 43.9017 136.262 44.525C134.832 46.1383 133.42 46.945 132.027 46.945C130.67 46.945 129.735 46.34 129.222 45.13C129.002 44.58 128.892 43.8833 128.892 43.04C128.892 42.1967 129.075 41.1517 129.442 39.905C126.765 44.5983 124.29 46.945 122.017 46.945C120.037 46.945 118.882 46.12 118.552 44.47C118.442 44.2867 118.387 44.0667 118.387 43.81ZM144.646 45.955C145.123 46.0283 145.453 46.065 145.636 46.065C147.103 46.065 148.551 45.2033 149.981 43.48C150.751 42.5267 152.126 40.125 154.106 36.275C154.18 36.0917 154.308 36 154.491 36C154.821 35.9633 154.986 36.0917 154.986 36.385C154.986 36.4583 154.895 36.6783 154.711 37.045C154.565 37.375 154.418 37.7233 154.271 38.09C154.125 38.42 153.886 38.915 153.556 39.575C153.226 40.235 152.933 40.7667 152.676 41.17C152.456 41.5733 152.163 42.0683 151.796 42.655C151.43 43.2417 151.063 43.7 150.696 44.03L149.541 45.24C148.918 45.8633 148.185 46.3033 147.341 46.56C145.985 47 144.665 47.0367 143.381 46.67C142.538 47.0367 141.786 47.22 141.126 47.22C138.523 47.22 136.946 46.1933 136.396 44.14C136.286 43.6633 136.231 43.095 136.231 42.435C136.231 41.7383 136.451 41.0783 136.891 40.455C137.368 39.8317 137.863 39.5017 138.376 39.465C140.246 35.9083 141.841 32.7 143.161 29.84C144.628 26.7233 146.333 25.165 148.276 25.165C148.79 25.165 149.285 25.2933 149.761 25.55C150.275 25.77 150.458 26.0267 150.311 26.32C150.201 26.6133 149.945 26.6683 149.541 26.485C149.138 26.3017 148.79 26.21 148.496 26.21C148.203 26.21 147.946 26.265 147.726 26.375C146.48 26.9617 145.856 28.2267 145.856 30.17C145.856 31.1967 146.003 32.04 146.296 32.7C146.59 33.36 146.92 34.075 147.286 34.845C148.13 36.7517 148.551 38.31 148.551 39.52C148.551 40.73 148.166 41.9217 147.396 43.095C146.626 44.2683 145.71 45.2217 144.646 45.955ZM142.776 45.57C144.39 44.3233 145.196 42.3067 145.196 39.52C145.196 38.3833 145.068 36.825 144.811 34.845C144.555 32.865 144.426 31.5267 144.426 30.83C144.426 30.1333 144.445 29.6567 144.481 29.4C141.695 34.9733 139.971 38.365 139.311 39.575C140.081 39.575 140.466 40.125 140.466 41.225C140.466 43.3883 141.236 44.8367 142.776 45.57ZM138.651 44.085C138.651 44.305 138.67 44.5433 138.706 44.8C139 45.79 139.678 46.285 140.741 46.285C141.181 46.285 141.548 46.2117 141.841 46.065C140.485 45.2217 139.751 43.8467 139.641 41.94C138.981 42.6 138.651 43.315 138.651 44.085ZM156.409 38.53C155.895 39.7767 155.639 41.17 155.639 42.71C155.639 43.7367 155.859 44.5617 156.299 45.185C156.775 45.7717 157.435 46.065 158.279 46.065C161.615 46.065 164.64 42.93 167.354 36.66C167.61 36.0733 167.922 35.8167 168.289 35.89C168.435 35.9267 168.509 36.0183 168.509 36.165C168.509 36.3117 168.087 37.2833 167.244 39.08C166.437 40.84 165.612 42.27 164.769 43.37C162.899 45.9367 160.589 47.22 157.839 47.22C156.372 47.22 155.125 46.7433 154.099 45.79C153.072 44.8367 152.559 43.535 152.559 41.885C152.559 40.235 152.944 38.4933 153.714 36.66C154.52 34.79 155.602 33.0667 156.959 31.49C158.315 29.8767 159.874 28.7033 161.634 27.97C162.477 27.6033 163.284 27.42 164.054 27.42C164.824 27.42 165.539 27.64 166.199 28.08C166.822 28.5933 167.134 29.1617 167.134 29.785C167.134 31.985 165.814 34.0933 163.174 36.11C162.367 36.7333 161.23 37.3017 159.764 37.815C158.297 38.2917 157.179 38.53 156.409 38.53ZM165.649 29.73C165.649 28.9967 165.355 28.63 164.769 28.63C163.742 28.63 162.184 29.895 160.094 32.425C158.847 33.965 157.747 35.6883 156.794 37.595C157.417 37.595 158.315 37.375 159.489 36.935C160.699 36.495 161.744 35.9083 162.624 35.175C164.64 33.4517 165.649 31.6367 165.649 29.73Z" fill="white"/>
</svg>
