<svg width="25" height="25" viewBox="0 0 25 25" fill="none" xmlns="http://www.w3.org/2000/svg">
<path fill-rule="evenodd" clip-rule="evenodd" d="M11.459 4.16671C7.43191 4.16671 4.16732 7.4313 4.16732 11.4584C4.16732 15.4854 7.43191 18.75 11.459 18.75C15.4861 18.75 18.7507 15.4854 18.7507 11.4584C18.7507 7.4313 15.4861 4.16671 11.459 4.16671ZM2.08398 11.4584C2.08398 6.2807 6.28131 2.08337 11.459 2.08337C16.6367 2.08337 20.834 6.2807 20.834 11.4584C20.834 16.636 16.6367 20.8334 11.459 20.8334C6.28131 20.8334 2.08398 16.636 2.08398 11.4584Z" fill="#151515"/>
<path fill-rule="evenodd" clip-rule="evenodd" d="M16.6078 16.6073C17.0146 16.2005 17.6742 16.2005 18.081 16.6073L22.6122 21.1386C23.019 21.5454 23.019 22.2049 22.6122 22.6117C22.2054 23.0185 21.5459 23.0185 21.1391 22.6117L16.6078 18.0805C16.201 17.6737 16.201 17.0141 16.6078 16.6073Z" fill="#151515"/>
</svg>
