<svg width="35" height="35" viewBox="0 0 35 35" fill="none" xmlns="http://www.w3.org/2000/svg">
<path fill-rule="evenodd" clip-rule="evenodd" d="M16.0415 5.83329C10.4036 5.83329 5.83317 10.4037 5.83317 16.0416C5.83317 21.6795 10.4036 26.25 16.0415 26.25C21.6794 26.25 26.2498 21.6795 26.2498 16.0416C26.2498 10.4037 21.6794 5.83329 16.0415 5.83329ZM2.9165 16.0416C2.9165 8.79289 8.79277 2.91663 16.0415 2.91663C23.2902 2.91663 29.1665 8.79289 29.1665 16.0416C29.1665 23.2904 23.2902 29.1666 16.0415 29.1666C8.79277 29.1666 2.9165 23.2904 2.9165 16.0416Z" fill="#151515"/>
<path fill-rule="evenodd" clip-rule="evenodd" d="M23.2504 23.2503C23.8199 22.6807 24.7433 22.6807 25.3128 23.2503L31.6565 29.594C32.226 30.1635 32.226 31.0869 31.6565 31.6564C31.087 32.2259 30.1636 32.2259 29.5941 31.6564L23.2504 25.3127C22.6809 24.7431 22.6809 23.8198 23.2504 23.2503Z" fill="#151515"/>
</svg>
